<?xml version="1.0" encoding="UTF-8" standalone="no"?>
<svg
   xmlns:dc="http://purl.org/dc/elements/1.1/"
   xmlns:cc="http://creativecommons.org/ns#"
   xmlns:rdf="http://www.w3.org/1999/02/22-rdf-syntax-ns#"
   xmlns:svg="http://www.w3.org/2000/svg"
   xmlns="http://www.w3.org/2000/svg"
   xmlns:sodipodi="http://sodipodi.sourceforge.net/DTD/sodipodi-0.dtd"
   xmlns:inkscape="http://www.inkscape.org/namespaces/inkscape"
   inkscape:version="1.0 (6e3e5246a0, 2020-05-07)"
   height="300"
   width="300"
   sodipodi:docname="Algemeen Dagblad 2020.svg"
   id="svg875"
   version="1.1"
   class="icons logo-algemeen-dagblad"
   viewBox="0 0 300 300">
  <metadata
     id="metadata881">
    <rdf:RDF>
      <cc:Work
         rdf:about="">
        <dc:format>image/svg+xml</dc:format>
        <dc:type
           rdf:resource="http://purl.org/dc/dcmitype/StillImage" />
        <dc:title>Logo</dc:title>
      </cc:Work>
    </rdf:RDF>
  </metadata>
  <defs
     id="defs879" />
  <sodipodi:namedview
     fit-margin-bottom="0"
     fit-margin-right="0"
     fit-margin-left="0"
     fit-margin-top="0"
     inkscape:current-layer="svg875"
     inkscape:window-maximized="1"
     inkscape:window-y="27"
     inkscape:window-x="0"
     inkscape:cy="51.5"
     inkscape:cx="42.832852"
     inkscape:zoom="0.89418115"
     showgrid="false"
     id="namedview877"
     inkscape:window-height="704"
     inkscape:window-width="1366"
     inkscape:pageshadow="2"
     inkscape:pageopacity="0"
     guidetolerance="10"
     gridtolerance="10"
     objecttolerance="10"
     borderopacity="1"
     bordercolor="#666666"
     pagecolor="#ffffff" />
  <title
     id="title867">Logo</title>
  <rect
     transform="scale(-1,1)"
     y="0"
     x="-300"
     height="300"
     width="300"
     id="rect883"
     style="fill:#d10a10;fill-opacity:1;stroke:none;stroke-width:12.291;stroke-linecap:round;stroke-linejoin:round;paint-order:markers fill stroke" />
  <g
     transform="scale(2.9126214)"
     id="g873"
     fill-rule="evenodd"
     fill="none">
    <g
       id="g871"
       fill="#ffffff">
      <path
         id="path869"
         d="M 63,67 V 36 h 2.93 C 74.338,35.793 80.04,40.626 80,51.5 80.04,62.658 74.623,67.207 66.072,67 Z M 43,23 63,80 h 4 C 86.453,80 97,68.344 97,51.5 97,34.372 86.595,23 67,23 Z m -14.887,34.495 5.36,-17.95 5.388,17.95 H 28.114 Z M 26,23 6,80 H 21.453 L 24.288,70.326 42.703,70.282 45.585,80 H 61 L 41,23 Z" />
    </g>
  </g>
</svg>
